 <svg version="1.0" xmlns="http://www.w3.org/2000/svg"  width="300.000000pt" height="254.000000pt" viewBox="0 0 300.000000 254.000000"  preserveAspectRatio="xMidYMid meet">  <g transform="translate(0.000000,254.000000) scale(0.100000,-0.100000)" fill="#000000" stroke="none"> <path d="M1445 2420 c-267 -42 -444 -189 -495 -408 -18 -80 -9 -85 173 -107 81 -9 153 -15 160 -12 8 3 24 32 36 65 37 104 123 162 238 162 57 0 127 -32 155 -70 21 -29 38 -119 38 -201 l0 -56 -152 -16 c-286 -30 -450 -89 -563 -201 -122 -122 -169 -296 -131 -477 35 -165 148 -280 315 -319 68 -16 244 -8 318 15 62 18 188 101 232 150 17 19 32 35 35 35 2 0 18 -22 35 -49 43 -67 134 -151 163 -151 33 0 278 213 278 242 0 12 -18 45 -39 73 -77 102 -74 83 -82 540 -5 344 -9 420 -23 470 -57 199 -235 310 -516 320 -63 2 -142 0 -175 -5z m347 -54 c88 -24 144 -54 204 -109 115 -104 124 -151 124 -619 0 -415 2 -430 78 -547 25 -38 39 -69 34 -76 -14 -27 -208 -185 -225 -185 -28 0 -60 26 -117 95 -83 103 -86 103 -187 14 -107 -94 -206 -129 -367 -129 -138 0 -236 38 -310 121 -110 121 -128 357 -40 519 92 169 283 258 627 291 124 12 129 13 154 43 24 28 25 34 18 105 -13 145 -40 202 -118 243 -60 31 -173 30 -241 -2 -63 -30 -119 -87 -136 -139 -7 -23 -19 -46 -26 -52 -16 -13 -264 16 -275 32 -9 16 13 94 46 159 60 119 203 209 390 246 88 17 288 12 367 -10z"/> <path d="M1583 1589 c-197 -33 -303 -148 -303 -328 1 -148 93 -248 219 -239 101 8 177 63 231 168 38 74 50 123 57 230 6 103 1 132 -29 160 -24 22 -79 25 -175 9z m167 -127 c0 -146 -35 -257 -104 -330 -79 -85 -189 -100 -264 -37 -86 72 -85 271 1 363 57 62 170 100 300 101 l67 1 0 -98z"/> <path d="M2565 714 c-93 -14 -188 -54 -209 -86 -16 -27 -3 -31 73 -19 90 14 219 14 260 0 39 -14 47 -42 33 -114 -9 -44 -53 -170 -87 -247 -5 -12 -2 -20 10 -24 20 -8 74 41 117 109 48 75 88 205 88 286 0 65 -1 69 -27 80 -27 11 -137 32 -158 30 -5 -1 -50 -7 -100 -15z m225 -34 c22 -6 25 -12 28 -63 2 -36 -4 -80 -18 -123 -22 -74 -68 -164 -83 -164 -11 0 -10 6 29 152 21 78 15 109 -29 142 -25 19 -42 21 -151 21 -101 0 -118 2 -99 12 22 11 101 28 168 36 34 4 117 -3 155 -13z"/> <path d="M156 673 c-20 -20 2 -49 93 -122 279 -222 598 -361 956 -417 145 -23 432 -23 570 -1 296 48 576 152 777 289 65 44 77 61 57 84 -17 21 -52 15 -165 -30 -166 -65 -373 -117 -589 -148 -139 -20 -562 -17 -705 5 -328 51 -595 139 -876 287 -62 32 -115 56 -118 53z m249 -151 c301 -135 558 -202 889 -233 140 -13 422 -8 566 11 185 24 437 87 613 154 112 43 121 33 27 -31 -175 -119 -469 -222 -750 -263 -206 -29 -465 -19 -668 26 -277 62 -562 192 -759 347 -62 48 -80 66 -45 47 9 -5 67 -31 127 -58z"/> </g> </svg> 